<?xml version="1.0" encoding="UTF-8"?>
<svg xmlns="http://www.w3.org/2000/svg" xmlns:xlink="http://www.w3.org/1999/xlink" width="100px" height="100px" viewBox="0 0 100 100" version="1.1">
<g id="surface1">
<path style=" stroke:none;fill-rule:nonzero;fill:rgb(0%,0%,0%);fill-opacity:1;" d="M 98.273438 12.976562 L 72.132812 3.722656 C 72.09375 3.6875 72.066406 3.648438 72.027344 3.617188 C 71.554688 3.257812 70.964844 3.109375 70.386719 3.167969 C 69.828125 3.09375 69.261719 3.226562 68.789062 3.546875 L 34.109375 12.734375 L 2.820312 5.496094 C 2.136719 5.339844 1.417969 5.5 0.867188 5.9375 C 0.320312 6.375 0 7.039062 0 7.738281 L 0 87.296875 C 0 88.367188 0.738281 89.296875 1.78125 89.539062 L 32.949219 96.742188 C 33.273438 96.910156 33.632812 97 33.996094 97 C 34.046875 97 34.097656 96.980469 34.148438 96.980469 C 34.207031 96.984375 34.261719 97 34.320312 97 C 34.722656 97 35.113281 96.894531 35.464844 96.691406 L 70.21875 87.480469 L 96.742188 96.867188 C 96.988281 96.957031 97.25 97 97.507812 97 C 97.980469 97 98.445312 96.855469 98.835938 96.578125 C 99.445312 96.144531 99.808594 95.445312 99.808594 94.699219 L 99.808594 15.144531 C 99.808594 14.167969 99.191406 13.296875 98.273438 12.976562 Z M 36.621094 64.714844 C 36.78125 64.683594 36.933594 64.628906 37.066406 64.523438 C 37.996094 63.773438 38.945312 62.820312 39.96875 61.601562 C 40.324219 61.175781 40.269531 60.546875 39.847656 60.191406 C 39.425781 59.839844 38.792969 59.890625 38.4375 60.316406 C 37.800781 61.074219 37.203125 61.710938 36.621094 62.253906 L 36.621094 50.203125 C 38.527344 48.460938 40.40625 46.144531 42.449219 43.621094 C 48.183594 36.539062 55.242188 27.839844 67.789062 24.683594 L 67.789062 30.4375 C 66.816406 30.589844 65.835938 30.84375 64.851562 31.210938 C 64.335938 31.402344 64.070312 31.980469 64.265625 32.496094 C 64.414062 32.898438 64.796875 33.144531 65.203125 33.144531 C 65.316406 33.144531 65.4375 33.125 65.550781 33.082031 C 66.304688 32.804688 67.050781 32.605469 67.789062 32.472656 L 67.789062 40.253906 C 61.609375 42.035156 56.148438 49.320312 50.414062 56.984375 C 45.941406 62.957031 41.34375 69.085938 36.621094 72.058594 Z M 72.917969 24.699219 C 86.535156 27.652344 92.835938 37.546875 95.207031 42.5625 L 95.207031 56.585938 C 94.894531 56.832031 94.75 57.25 94.871094 57.652344 C 94.992188 58.054688 95.101562 58.46875 95.207031 58.878906 L 95.207031 71.460938 C 90.582031 56.617188 82.324219 42.648438 72.917969 40.214844 Z M 95.207031 16.769531 L 95.207031 36.441406 C 90.722656 29.78125 83.367188 23.730469 72.917969 21.632812 L 72.917969 8.882812 Z M 67.789062 8.570312 L 67.789062 21.609375 C 53.804688 24.867188 45.925781 34.558594 40.117188 41.734375 C 38.894531 43.246094 37.738281 44.667969 36.621094 45.914062 L 36.621094 16.828125 Z M 31.699219 49.992188 C 30.335938 49.921875 29.117188 49.324219 27.976562 48.167969 C 21.515625 41.628906 20.605469 21.175781 20.484375 14.304688 L 31.699219 16.898438 Z M 17.46875 13.605469 C 17.527344 19.949219 18.273438 42.613281 25.84375 50.273438 C 27.554688 52.007812 29.523438 52.914062 31.699219 52.984375 L 31.699219 72.9375 C 9.9375 66.917969 5.351562 42.730469 4.601562 28.40625 L 4.601562 10.632812 Z M 4.601562 85.46875 L 4.601562 47.5 C 10.609375 67.5625 23.855469 73.996094 31.699219 76.046875 L 31.699219 91.734375 Z M 36.621094 91.625 L 36.621094 75.496094 C 42.46875 72.589844 47.71875 65.585938 52.8125 58.777344 C 57.757812 52.175781 62.839844 45.40625 67.789062 43.425781 L 67.789062 83.363281 Z M 72.917969 83.558594 L 72.917969 43.296875 C 83.070312 46.644531 92.316406 67.320312 95.207031 84.4375 L 95.207031 91.445312 Z M 72.917969 83.558594 "/>
<path style=" stroke:none;fill-rule:nonzero;fill:rgb(0%,0%,0%);fill-opacity:1;" d="M 56.375 39.253906 C 56.628906 39.253906 56.882812 39.15625 57.078125 38.96875 C 58.039062 38.019531 59 37.160156 59.933594 36.417969 C 60.363281 36.070312 60.433594 35.441406 60.089844 35.011719 C 59.742188 34.582031 59.109375 34.507812 58.683594 34.855469 C 57.699219 35.640625 56.6875 36.546875 55.675781 37.542969 C 55.277344 37.929688 55.277344 38.5625 55.664062 38.957031 C 55.855469 39.152344 56.117188 39.253906 56.375 39.253906 Z M 56.375 39.253906 "/>
<path style=" stroke:none;fill-rule:nonzero;fill:rgb(0%,0%,0%);fill-opacity:1;" d="M 86.457031 42.761719 C 86.65625 42.976562 86.929688 43.089844 87.199219 43.089844 C 87.4375 43.089844 87.679688 43.003906 87.871094 42.832031 C 88.28125 42.460938 88.3125 41.828125 87.941406 41.417969 C 87.042969 40.425781 86.085938 39.464844 85.097656 38.566406 C 84.691406 38.195312 84.058594 38.226562 83.683594 38.632812 C 83.3125 39.042969 83.34375 39.675781 83.753906 40.046875 C 84.691406 40.898438 85.605469 41.8125 86.457031 42.761719 Z M 86.457031 42.761719 "/>
<path style=" stroke:none;fill-rule:nonzero;fill:rgb(0%,0%,0%);fill-opacity:1;" d="M 92.394531 51.433594 C 92.570312 51.78125 92.921875 51.984375 93.289062 51.984375 C 93.441406 51.984375 93.59375 51.949219 93.738281 51.878906 C 94.230469 51.632812 94.429688 51.03125 94.183594 50.535156 C 93.585938 49.34375 92.917969 48.164062 92.203125 47.027344 C 91.910156 46.5625 91.292969 46.421875 90.824219 46.71875 C 90.355469 47.011719 90.21875 47.628906 90.511719 48.097656 C 91.191406 49.175781 91.824219 50.296875 92.394531 51.433594 Z M 92.394531 51.433594 "/>
<path style=" stroke:none;fill-rule:nonzero;fill:rgb(0%,0%,0%);fill-opacity:1;" d="M 43.265625 56.402344 C 43.585938 56.402344 43.902344 56.25 44.09375 55.960938 C 44.558594 55.273438 45.027344 54.566406 45.5 53.855469 L 46.277344 52.6875 C 46.585938 52.230469 46.460938 51.609375 46 51.300781 C 45.542969 50.992188 44.921875 51.117188 44.613281 51.578125 L 43.835938 52.746094 C 43.363281 53.457031 42.898438 54.15625 42.433594 54.847656 C 42.128906 55.304688 42.246094 55.925781 42.707031 56.234375 C 42.878906 56.347656 43.070312 56.402344 43.265625 56.402344 Z M 43.265625 56.402344 "/>
<path style=" stroke:none;fill-rule:nonzero;fill:rgb(0%,0%,0%);fill-opacity:1;" d="M 49.382812 47.484375 C 49.691406 47.484375 49.992188 47.347656 50.1875 47.082031 C 50.992188 45.992188 51.792969 44.957031 52.5625 44.003906 C 52.910156 43.570312 52.84375 42.941406 52.414062 42.597656 C 51.984375 42.25 51.355469 42.316406 51.007812 42.746094 C 50.21875 43.722656 49.402344 44.78125 48.582031 45.890625 C 48.253906 46.335938 48.347656 46.960938 48.789062 47.289062 C 48.96875 47.421875 49.175781 47.484375 49.382812 47.484375 Z M 49.382812 47.484375 "/>
<path style=" stroke:none;fill-rule:nonzero;fill:rgb(0%,0%,0%);fill-opacity:1;" d="M 11.863281 34.214844 C 12.085938 35.535156 12.335938 36.851562 12.613281 38.117188 C 12.714844 38.589844 13.128906 38.90625 13.589844 38.90625 C 13.660156 38.90625 13.730469 38.898438 13.800781 38.886719 C 14.34375 38.769531 14.683594 38.234375 14.566406 37.695312 C 14.296875 36.457031 14.050781 35.175781 13.835938 33.882812 C 13.742188 33.339844 13.238281 32.980469 12.683594 33.0625 C 12.136719 33.15625 11.769531 33.671875 11.863281 34.214844 Z M 11.863281 34.214844 "/>
<path style=" stroke:none;fill-rule:nonzero;fill:rgb(0%,0%,0%);fill-opacity:1;" d="M 11.5625 22.320312 C 11.011719 22.355469 10.59375 22.832031 10.628906 23.382812 C 10.714844 24.707031 10.820312 26.035156 10.949219 27.332031 C 11 27.847656 11.4375 28.230469 11.945312 28.230469 C 11.976562 28.230469 12.011719 28.230469 12.042969 28.226562 C 12.59375 28.171875 12.996094 27.683594 12.941406 27.132812 C 12.816406 25.863281 12.707031 24.554688 12.621094 23.25 C 12.589844 22.703125 12.105469 22.300781 11.5625 22.320312 Z M 11.5625 22.320312 "/>
<path style=" stroke:none;fill-rule:nonzero;fill:rgb(0%,0%,0%);fill-opacity:1;" d="M 79.496094 34.292969 C 78.347656 33.566406 77.160156 32.902344 75.976562 32.320312 C 75.480469 32.078125 74.878906 32.28125 74.636719 32.777344 C 74.394531 33.273438 74.597656 33.871094 75.09375 34.117188 C 76.21875 34.667969 77.339844 35.296875 78.429688 35.984375 C 78.597656 36.089844 78.78125 36.140625 78.960938 36.140625 C 79.292969 36.140625 79.617188 35.972656 79.808594 35.671875 C 80.105469 35.207031 79.964844 34.589844 79.496094 34.292969 Z M 79.496094 34.292969 "/>
<path style=" stroke:none;fill-rule:nonzero;fill:rgb(0%,0%,0%);fill-opacity:1;" d="M 14.40625 44.855469 C 14.824219 46.148438 15.277344 47.414062 15.761719 48.617188 C 15.914062 49.007812 16.292969 49.246094 16.6875 49.246094 C 16.8125 49.246094 16.9375 49.222656 17.058594 49.175781 C 17.574219 48.96875 17.824219 48.386719 17.617188 47.875 C 17.152344 46.714844 16.714844 45.492188 16.3125 44.242188 C 16.144531 43.71875 15.578125 43.433594 15.054688 43.597656 C 14.527344 43.765625 14.238281 44.328125 14.40625 44.855469 Z M 14.40625 44.855469 "/>
<path style=" stroke:none;fill-rule:nonzero;fill:rgb(0%,0%,0%);fill-opacity:1;" d="M 21.089844 58.289062 C 21.285156 58.546875 21.582031 58.683594 21.886719 58.683594 C 22.097656 58.683594 22.308594 58.617188 22.488281 58.480469 C 22.929688 58.144531 23.015625 57.519531 22.679688 57.078125 C 21.941406 56.105469 21.226562 55.042969 20.558594 53.914062 C 20.277344 53.4375 19.664062 53.28125 19.1875 53.5625 C 18.714844 53.84375 18.554688 54.457031 18.835938 54.933594 C 19.546875 56.125 20.300781 57.257812 21.089844 58.289062 Z M 21.089844 58.289062 "/>
<path style=" stroke:none;fill-rule:nonzero;fill:rgb(0%,0%,0%);fill-opacity:1;" d="M 29.742188 65.402344 C 29.867188 65.453125 29.992188 65.476562 30.121094 65.476562 C 30.515625 65.476562 30.886719 65.242188 31.046875 64.855469 C 31.257812 64.34375 31.011719 63.761719 30.5 63.550781 C 29.429688 63.113281 28.355469 62.5 27.308594 61.730469 C 26.863281 61.402344 26.238281 61.5 25.910156 61.945312 C 25.585938 62.390625 25.679688 63.015625 26.125 63.34375 C 27.304688 64.210938 28.523438 64.902344 29.742188 65.402344 Z M 29.742188 65.402344 "/>
<path style=" stroke:none;fill-rule:nonzero;fill:rgb(0%,0%,0%);fill-opacity:1;" d="M 11.355469 17.375 C 11.359375 17.375 11.363281 17.375 11.371094 17.375 C 11.921875 17.367188 12.363281 16.914062 12.355469 16.359375 C 12.347656 15.707031 12.34375 15.046875 12.34375 14.375 C 12.34375 13.820312 11.894531 13.375 11.34375 13.375 C 10.789062 13.375 10.34375 13.820312 10.34375 14.375 C 10.34375 15.054688 10.347656 15.726562 10.355469 16.390625 C 10.363281 16.9375 10.8125 17.375 11.355469 17.375 Z M 11.355469 17.375 "/>
</g>
</svg>
