<svg xmlns="http://www.w3.org/2000/svg" xmlns:xlink="http://www.w3.org/1999/xlink" version="1.1" x="0px" y="0px" viewBox="0 0 64 64" enable-background="new 0 0 64 64" xml:space="preserve"><g><path fill="#000000" d="M41.4,17.6c-0.1-0.1-0.3-0.2-0.5-0.3l-10.1-2.1c0,0,0,0,0,0c-3.9-3.9-8.2-7.2-12.9-10c0,0,0,0,0,0   c0,0,0,0,0,0c0,0,0,0,0,0c-0.1,0-0.1-0.1-0.2-0.1L1.4,0.1C1,0,0.6,0.1,0.4,0.4C0.1,0.6,0,1,0.1,1.4l4.9,16.3c0,0.1,0.1,0.2,0.1,0.2   c0,0,0,0,0,0c2.2,3.5,5.3,8.2,10,12.9l2.1,10.1c0,0.2,0.1,0.4,0.3,0.5L28.3,52c0.2,0.2,0.4,0.3,0.7,0.3c0.1,0,0.3,0,0.4-0.1   c0.4-0.2,0.6-0.5,0.6-0.9V40l4.3-4.3l4.9,4.9c0.2,0.2,0.5,0.3,0.7,0.3s0.5-0.1,0.7-0.3c0.4-0.4,0.4-1,0-1.4l-4.9-4.9L40,30h11.2   c0.4,0,0.8-0.2,0.9-0.6c0.2-0.4,0.1-0.8-0.2-1.1L41.4,17.6z M15.5,6.5l-9,9L2.6,2.6L15.5,6.5z M19.2,40.2l-1.5-7   c3.1,2.7,6.5,5.3,10.2,7.6v8.1L19.2,40.2z M34.3,32.9l-5.7-5.7c-0.4-0.4-1-0.4-1.4,0s-0.4,1,0,1.4l5.7,5.7l-4.4,4.4   c-4.3-2.7-8.2-5.7-11.5-9c-0.1-0.3-0.3-0.5-0.6-0.5c-4.2-4.2-7.1-8.4-9.1-11.7L17.5,7.3c4.2,2.6,8.2,5.7,11.7,9.2   c0.1,0.3,0.3,0.4,0.5,0.6c3.4,3.5,6.5,7.3,9,11.5L34.3,32.9z M40.7,28c-2.2-3.6-4.7-7.1-7.6-10.2l7,1.5l8.7,8.8H40.7z"/><path fill="#000000" d="M37.8,44.5c0.3,0,0.5-0.1,0.7-0.3c0.4-0.4,0.4-1,0-1.4L35,39.3c-0.4-0.4-1-0.4-1.4,0s-0.4,1,0,1.4l3.5,3.5   C37.3,44.4,37.6,44.5,37.8,44.5z"/><path fill="#000000" d="M62,57c0.3,0,0.5-0.1,0.7-0.3c0.4-0.4,0.4-1,0-1.4L40,32.9c-0.4-0.4-1-0.4-1.4,0c-0.4,0.4-0.4,1,0,1.4   l22.7,22.4C61.5,56.9,61.7,57,62,57z"/><path fill="#000000" d="M58,64c0.3,0,0.5-0.1,0.7-0.3c0.4-0.4,0.4-1,0-1.4l-18-17.4c-0.4-0.4-1-0.4-1.4,0c-0.4,0.4-0.4,1,0,1.4   l18,17.4C57.5,63.9,57.8,64,58,64z"/><path fill="#000000" d="M19.5,13.5c-1.6,0-3.1,0.6-4.2,1.8c-2.3,2.3-2.3,6.1,0,8.5c1.1,1.1,2.6,1.8,4.2,1.8s3.1-0.6,4.2-1.8   c2.3-2.3,2.3-6.1,0-8.5C22.6,14.1,21.1,13.5,19.5,13.5z M22.3,22.3c-1.5,1.5-4.1,1.5-5.7,0c-1.6-1.6-1.6-4.1,0-5.7   c0.8-0.8,1.8-1.2,2.8-1.2s2.1,0.4,2.8,1.2C23.9,18.2,23.9,20.7,22.3,22.3z"/><path fill="#000000" d="M52,53c0.3,0,0.5-0.1,0.7-0.3c0.4-0.4,0.4-1,0-1.4l-6-6c-0.4-0.4-1-0.4-1.4,0s-0.4,1,0,1.4l6,6   C51.5,52.9,51.7,53,52,53z"/><path fill="#000000" d="M56,57c0.3,0,0.5-0.1,0.7-0.3c0.4-0.4,0.4-1,0-1.4l-1-1c-0.4-0.4-1-0.4-1.4,0s-0.4,1,0,1.4l1,1   C55.5,56.9,55.7,57,56,57z"/></g></svg>